<svg xmlns="http://www.w3.org/2000/svg" width="186" height="36" viewBox="0 0 186 36" fill="none"><path d="M44.32 4.8H52.492C54.1 4.8 55.432 5.028 56.488 5.484C57.544 5.916 58.372 6.468 58.972 7.14C59.596 7.788 60.028 8.496 60.268 9.264C60.532 10.032 60.664 10.74 60.664 11.388C60.664 12.108 60.544 12.852 60.304 13.62C60.064 14.364 59.68 15.06 59.152 15.708C58.624 16.356 57.94 16.896 57.1 17.328C56.284 17.76 55.3 18.012 54.148 18.084V18.228L54.508 18.408C54.796 18.552 55.036 18.732 55.228 18.948C55.444 19.164 55.708 19.512 56.02 19.992C56.356 20.472 56.8 21.156 57.352 22.044C57.904 22.908 58.684 24.072 59.692 25.536C60.028 26.04 60.352 26.496 60.664 26.904C60.976 27.288 61.3 27.624 61.636 27.912C61.972 28.176 62.332 28.38 62.716 28.524C63.1 28.668 63.544 28.74 64.048 28.74C64.168 28.74 64.288 28.74 64.408 28.74C64.528 28.716 64.648 28.692 64.768 28.668V30C64.432 30.192 64.096 30.312 63.76 30.36C63.424 30.408 62.992 30.432 62.464 30.432C61.744 30.432 61.12 30.336 60.592 30.144C60.088 29.952 59.632 29.7 59.224 29.388C58.816 29.052 58.432 28.656 58.072 28.2C57.736 27.744 57.388 27.24 57.028 26.688L54.184 22.476C53.752 21.804 53.38 21.24 53.068 20.784C52.756 20.328 52.42 19.956 52.06 19.668C51.7 19.38 51.292 19.176 50.836 19.056C50.404 18.936 49.852 18.876 49.18 18.876H47.596V30H44.32V4.8ZM47.596 6.384V17.256H51.304C52.264 17.256 53.104 17.088 53.824 16.752C54.568 16.416 55.192 15.984 55.696 15.456C56.2 14.904 56.572 14.304 56.812 13.656C57.076 12.984 57.208 12.324 57.208 11.676C57.208 10.908 57.064 10.2 56.776 9.552C56.512 8.904 56.116 8.352 55.588 7.896C55.06 7.416 54.424 7.044 53.68 6.78C52.96 6.516 52.144 6.384 51.232 6.384H47.596ZM67.6398 17.4C67.6398 16.032 67.8918 14.58 68.3958 13.044C68.9238 11.508 69.7398 10.104 70.8438 8.832C71.9478 7.536 73.3518 6.468 75.0558 5.628C76.7598 4.788 78.7998 4.368 81.1758 4.368C83.5758 4.368 85.6518 4.8 87.4038 5.664C89.1798 6.504 90.6438 7.572 91.7958 8.868C92.9478 10.164 93.7998 11.58 94.3518 13.116C94.9038 14.628 95.1798 16.056 95.1798 17.4C95.1798 18.288 95.0478 19.224 94.7838 20.208C94.5438 21.192 94.1718 22.176 93.6678 23.16C93.1878 24.12 92.5638 25.044 91.7958 25.932C91.0278 26.796 90.1158 27.564 89.0598 28.236C88.0278 28.908 86.8518 29.448 85.5318 29.856C84.2358 30.24 82.7838 30.432 81.1758 30.432C78.7998 30.432 76.7598 30.012 75.0558 29.172C73.3518 28.308 71.9478 27.228 70.8438 25.932C69.7398 24.636 68.9238 23.232 68.3958 21.72C67.8918 20.184 67.6398 18.744 67.6398 17.4ZM71.1678 17.4C71.1678 19.08 71.4198 20.628 71.9238 22.044C72.4518 23.436 73.1598 24.636 74.0478 25.644C74.9598 26.652 76.0278 27.444 77.2518 28.02C78.4758 28.572 79.8078 28.848 81.2478 28.848C82.6638 28.848 83.9958 28.572 85.2438 28.02C86.5158 27.444 87.6198 26.652 88.5558 25.644C89.5158 24.636 90.2718 23.436 90.8238 22.044C91.3758 20.628 91.6518 19.08 91.6518 17.4C91.6518 15.72 91.3758 14.184 90.8238 12.792C90.2718 11.376 89.5158 10.164 88.5558 9.156C87.6198 8.148 86.5158 7.368 85.2438 6.816C83.9958 6.24 82.6638 5.952 81.2478 5.952C79.8078 5.952 78.4758 6.24 77.2518 6.816C76.0278 7.368 74.9598 8.148 74.0478 9.156C73.1598 10.164 72.4518 11.376 71.9238 12.792C71.4198 14.184 71.1678 15.72 71.1678 17.4ZM98.3203 23.628H100.768C100.792 24.036 100.888 24.54 101.056 25.14C101.224 25.716 101.548 26.28 102.028 26.832C102.508 27.384 103.204 27.864 104.116 28.272C105.028 28.656 106.24 28.848 107.752 28.848C109.648 28.848 111.16 28.488 112.288 27.768C113.44 27.048 114.016 25.908 114.016 24.348C114.016 23.1 113.656 22.104 112.936 21.36C112.216 20.616 111.304 19.992 110.2 19.488C109.12 18.96 107.944 18.492 106.672 18.084C105.4 17.676 104.212 17.184 103.108 16.608C102.028 16.032 101.128 15.312 100.408 14.448C99.6883 13.584 99.3283 12.444 99.3283 11.028C99.3283 9.948 99.5443 8.988 99.9763 8.148C100.432 7.308 101.032 6.612 101.776 6.06C102.544 5.508 103.42 5.088 104.404 4.8C105.412 4.512 106.468 4.368 107.572 4.368C108.628 4.368 109.636 4.5 110.596 4.764C111.58 5.004 112.456 5.376 113.224 5.88C113.992 6.36 114.628 6.96 115.132 7.68C115.636 8.376 115.96 9.168 116.104 10.056H113.656C113.464 8.64 112.816 7.608 111.712 6.96C110.632 6.288 109.312 5.952 107.752 5.952C106.816 5.952 105.988 6.072 105.268 6.312C104.548 6.528 103.936 6.828 103.432 7.212C102.952 7.572 102.58 8.004 102.316 8.508C102.076 9.012 101.956 9.552 101.956 10.128C101.956 11.16 102.328 11.988 103.072 12.612C103.816 13.236 104.74 13.788 105.844 14.268C106.972 14.748 108.184 15.204 109.48 15.636C110.8 16.068 112.012 16.608 113.116 17.256C114.244 17.88 115.18 18.672 115.924 19.632C116.668 20.568 117.04 21.78 117.04 23.268C117.04 24.348 116.824 25.332 116.392 26.22C115.96 27.108 115.348 27.864 114.556 28.488C113.764 29.112 112.804 29.592 111.676 29.928C110.572 30.264 109.324 30.432 107.932 30.432C106.564 30.432 105.304 30.276 104.152 29.964C103 29.628 101.992 29.172 101.128 28.596C100.288 27.996 99.6163 27.276 99.1123 26.436C98.6323 25.596 98.3683 24.66 98.3203 23.628ZM133.132 30H129.856V6.78H120.208V4.8H142.78V6.78H133.132V30ZM157.5 22.584H145.08L141.912 30H140.256L150.912 4.8H152.712L164.448 30H160.956L157.5 22.584ZM156.744 20.964L151.092 8.832H150.948L145.764 20.964H156.744ZM163.389 4.8H167.097L174.441 18.084H174.585L182.289 4.8H184.233L175.377 20.136V30H172.101V20.46L163.389 4.8Z" fill="currentColor"></path><g clip-path="url(#clip0_346_2)"><path d="M35.9999 14.8884C31.9036 18.9847 25.2078 18.9847 21.1115 14.8884C17.0152 10.7921 17.0152 4.09628 21.1115 0L35.9999 14.8884Z" fill="#F2B612"></path><path d="M35.9999 21.1113C31.9036 17.015 25.2078 17.015 21.1115 21.1113C17.0152 25.2076 17.0152 31.9034 21.1115 35.9997L35.9999 21.1113Z" fill="#F2B612"></path><path d="M0 14.8884C4.09628 18.9847 10.7921 18.9847 14.8884 14.8884C18.9847 10.7921 18.9847 4.09628 14.8884 0L0 14.8884Z" fill="#F2B612"></path><path d="M0 21.1113C4.09628 17.015 10.7921 17.015 14.8884 21.1113C18.9847 25.2076 18.9847 31.9034 14.8884 35.9997L0 21.1113Z" fill="#F2B612"></path></g><defs><clipPath id="clip0_346_2"><rect width="36" height="36" fill="white"></rect></clipPath></defs></svg>
